<svg width="75" height="58" viewBox="0 0 75 58" fill="none" xmlns="http://www.w3.org/2000/svg">
<path d="M7.14884 16.2964L0 25.5782L35.0168 25.4953L42.1657 16.2135L7.14884 16.2964Z" fill="url(#paint0_linear_60_254)"/>
<path d="M74.8451 0.134255L19.6161 0L12.4809 9.3581L57.5505 9.34089L45.1844 25.5296L55.2758 25.5667L74.8451 0.134255Z" fill="url(#paint1_linear_60_254)"/>
<path d="M39.8382 32.4686L32.6892 41.7503L67.7061 41.6681L74.8551 32.3864L39.8382 32.4686Z" fill="url(#paint2_linear_60_254)"/>
<path d="M19.5815 32.3977L0.012165 57.8301L55.1731 57.8499L62.3764 48.6063L17.3069 48.6235L29.6729 32.4347L19.5815 32.3977Z" fill="url(#paint3_linear_60_254)"/>
<defs>
<linearGradient id="paint0_linear_60_254" x1="11.4327" y1="-31.704" x2="108.228" y2="231.982" gradientUnits="userSpaceOnUse">
<stop stop-color="white"/>
<stop offset="0.48" stop-color="#7A9FD6"/>
<stop offset="1" stop-color="#7A9FD6"/>
</linearGradient>
<linearGradient id="paint1_linear_60_254" x1="-23.2993" y1="28.9249" x2="224.565" y2="28.9249" gradientUnits="userSpaceOnUse">
<stop stop-color="white"/>
<stop offset="0.48" stop-color="#7A9FD6"/>
<stop offset="1" stop-color="#7A9FD6"/>
</linearGradient>
<linearGradient id="paint2_linear_60_254" x1="-14.0785" y1="-91.1462" x2="82.7116" y2="172.541" gradientUnits="userSpaceOnUse">
<stop stop-color="white"/>
<stop offset="0.48" stop-color="#7A9FD6"/>
<stop offset="1" stop-color="#7A9FD6"/>
</linearGradient>
<linearGradient id="paint3_linear_60_254" x1="-1.61628" y1="-1.9293" x2="66.4624" y2="112.481" gradientUnits="userSpaceOnUse">
<stop stop-color="white"/>
<stop offset="0.48" stop-color="#7A9FD6"/>
<stop offset="1" stop-color="#7A9FD6"/>
</linearGradient>
</defs>
</svg>
