<svg width="79" height="92" viewBox="0 0 79 92" fill="none" xmlns="http://www.w3.org/2000/svg">
<path d="M44.1402 16.8944H7.71259L0.233154 26.5906H36.6607L44.1402 16.8944Z" fill="url(#paint0_linear_59_295)"/>
<path d="M47.2613 26.5612L57.7604 26.5998L78.1205 0.139735L20.6599 0L13.2363 9.73622L60.127 9.71836L47.2613 26.5612Z" fill="url(#paint1_linear_59_295)"/>
<path d="M34.2513 43.4105H70.6789L78.1583 33.7143H41.7307L34.2513 43.4105Z" fill="url(#paint2_linear_59_295)"/>
<path d="M31.1232 33.7464L20.624 33.7078L0.2639 60.1679L57.6537 60.1886L65.1481 50.5714L18.2574 50.5892L31.1232 33.7464Z" fill="url(#paint3_linear_59_295)"/>
<path d="M0 77.2992H10.977L0 87.5863V90.7772H16.168V87.5863H5.19103L16.168 77.2992V74.1083H0V77.2992Z" fill="#071C59"/>
<path d="M27.5488 74.1081H23.3103V90.7772H27.5488V74.1081Z" fill="#071C59"/>
<path d="M49.1697 82.5378C49.1697 86.3004 47.7173 87.8482 44.1932 87.8482C43.2287 87.8482 42.4182 87.7356 41.7464 87.5L48.9726 80.2733C49.1052 80.8723 49.1697 81.5609 49.1697 82.3475V82.5378ZM39.1214 82.3475C39.1214 78.5849 40.5977 77.0372 44.1932 77.0372C45.2482 77.0372 46.1162 77.1771 46.8165 77.4724L39.3927 84.8965C39.2093 84.2344 39.1214 83.452 39.1214 82.5378V82.3475ZM44.1932 73.7986C37.9069 73.7986 34.8591 76.5132 34.8591 82.2521V82.633C34.8591 88.372 37.9069 91.0868 44.1932 91.0868C50.3842 91.0868 53.4083 88.372 53.4083 82.633V82.2521C53.4083 76.5132 50.3842 73.7986 44.1932 73.7986Z" fill="#071C59"/>
<path d="M69.2892 73.7986C63.1458 73.7986 60.5266 75.9656 60.5266 80.9424V90.7771H64.7888V81.0853C64.7888 78.2755 66.0985 77.0372 69.2892 77.0372C72.3607 77.0372 73.6704 78.2755 73.6704 81.0853V90.7771H77.9328V80.9424C77.9328 75.9656 75.3135 73.7986 69.2892 73.7986Z" fill="#071C59"/>
<defs>
<linearGradient id="paint0_linear_59_295" x1="68.6802" y1="-143.201" x2="-321.893" y2="44.4653" gradientUnits="userSpaceOnUse">
<stop stop-color="#5792E5"/>
<stop offset="0.48" stop-color="#071C59"/>
<stop offset="1" stop-color="#071C59"/>
</linearGradient>
<linearGradient id="paint1_linear_59_295" x1="-24.0217" y1="30.0942" x2="234.009" y2="30.0942" gradientUnits="userSpaceOnUse">
<stop stop-color="#5792E5"/>
<stop offset="0.48" stop-color="#071C59"/>
<stop offset="1" stop-color="#071C59"/>
</linearGradient>
<linearGradient id="paint2_linear_59_295" x1="-19.1955" y1="373.294" x2="371.377" y2="185.627" gradientUnits="userSpaceOnUse">
<stop stop-color="#5792E5"/>
<stop offset="0.48" stop-color="#071C59"/>
<stop offset="1" stop-color="#071C59"/>
</linearGradient>
<linearGradient id="paint3_linear_59_295" x1="-1.43029" y1="-2.00631" x2="69.3991" y2="117.026" gradientUnits="userSpaceOnUse">
<stop stop-color="#5792E5"/>
<stop offset="0.48" stop-color="#071C59"/>
<stop offset="1" stop-color="#071C59"/>
</linearGradient>
</defs>
</svg>
