<svg width="269" height="59" viewBox="0 0 269 59" fill="none" xmlns="http://www.w3.org/2000/svg">
<path d="M7.21592 16.449L0 25.8179L35.3455 25.7342L42.5614 16.3653L7.21592 16.449Z" fill="url(#paint0_linear_58_1874)"/>
<path d="M75.5478 0.135513L19.8005 0L12.5983 9.44592L58.0908 9.42855L45.6087 25.7692L55.7948 25.8066L75.5478 0.135513Z" fill="url(#paint1_linear_58_1874)"/>
<path d="M40.2113 32.7746L32.9954 42.1435L68.3408 42.0599L75.5567 32.6909L40.2113 32.7746Z" fill="url(#paint2_linear_58_1874)"/>
<path d="M19.7665 32.7026L0.013472 58.3737L55.6921 58.3937L62.963 49.0633L17.4705 49.0806L29.9526 32.7399L19.7665 32.7026Z" fill="url(#paint3_linear_58_1874)"/>
<path d="M98.5857 18.0248H122.549L98.5857 40.4819V47.4478H133.881V40.4819H109.917L133.881 18.0248V11.059H98.5857V18.0248Z" fill="#071C59"/>
<path d="M158.727 11.0593H149.474V47.4481H158.727V11.0593Z" fill="#071C59"/>
<path d="M205.926 29.4614C205.926 37.6748 202.755 41.0538 195.062 41.0538C192.956 41.0538 191.194 40.8015 189.727 40.287L205.488 24.525C205.778 25.8331 205.926 27.3276 205.926 29.0455V29.4614ZM183.99 29.0455C183.99 20.8321 187.213 17.453 195.062 17.453C197.365 17.453 199.255 17.7632 200.784 18.408L184.585 34.6077C184.184 33.162 183.99 31.457 183.99 29.4614V29.0455ZM195.062 10.3832C181.339 10.3832 174.686 16.3094 174.686 28.8375V29.6693C174.686 42.1974 181.339 48.1236 195.062 48.1236C208.577 48.1236 215.179 42.1974 215.179 29.6693V28.8375C215.179 16.3094 208.577 10.3832 195.062 10.3832Z" fill="#071C59"/>
<path d="M249.849 10.3832C236.438 10.3832 230.72 15.1138 230.72 25.9784V47.4477H240.024V26.2903C240.024 20.1562 242.883 17.453 249.849 17.453C256.554 17.453 259.413 20.1562 259.413 26.2903V47.4477H268.718V25.9784C268.718 15.1138 263 10.3832 249.849 10.3832Z" fill="#071C59"/>
<defs>
<linearGradient id="paint0_linear_58_1874" x1="11.5396" y1="-32.0017" x2="109.246" y2="234.161" gradientUnits="userSpaceOnUse">
<stop stop-color="#5792E5"/>
<stop offset="0.48" stop-color="#071C59"/>
<stop offset="1" stop-color="#071C59"/>
</linearGradient>
<linearGradient id="paint1_linear_58_1874" x1="-23.5177" y1="29.197" x2="226.67" y2="29.197" gradientUnits="userSpaceOnUse">
<stop stop-color="#5792E5"/>
<stop offset="0.48" stop-color="#071C59"/>
<stop offset="1" stop-color="#071C59"/>
</linearGradient>
<linearGradient id="paint2_linear_58_1874" x1="-14.2132" y1="-92.0018" x2="83.4938" y2="174.161" gradientUnits="userSpaceOnUse">
<stop stop-color="#5792E5"/>
<stop offset="0.48" stop-color="#071C59"/>
<stop offset="1" stop-color="#071C59"/>
</linearGradient>
<linearGradient id="paint3_linear_58_1874" x1="-1.63038" y1="-1.94659" x2="67.0872" y2="113.537" gradientUnits="userSpaceOnUse">
<stop stop-color="#5792E5"/>
<stop offset="0.48" stop-color="#071C59"/>
<stop offset="1" stop-color="#071C59"/>
</linearGradient>
</defs>
</svg>
